<svg xmlns="http://www.w3.org/2000/svg" xml:space="preserve"
     width="167" height="58" viewBox="9.84 9.52 166.63 57.62"><path d="M87.601 30.479c-0.025 -0.37 -0.038 -0.88 -0.408 -1.428 -0.599 -0.943 -1.746 -1.096 -2.435 -1.096 -3.544 0 -4.245 3.225 -4.245 5.405 0 0.956 0.14 2.69 1.211 3.812 0.727 0.79 1.683 1.211 3.416 1.211 1.504 0 2.027 -0.178 2.371 -0.28v-2.983h-2.817V32.761H90.635v7.088c-0.905 0.293 -2.397 0.79 -5.303 0.79 -3.314 0 -5.023 -0.79 -6.17 -1.887 -1.632 -1.555 -1.925 -3.812 -1.925 -5.303 0 -5.023 3.212 -7.712 7.623 -7.712 1.874 0 3.799 0.51 4.946 1.785 0.969 1.084 1.02 2.193 1.045 2.97h-3.251zm11.243 -4.653c1.542 0 3.684 0.357 5.112 1.925 1.542 1.734 1.848 3.952 1.848 5.341 0 2.065 -0.637 4.258 -1.836 5.558 -1.606 1.759 -3.952 2.014 -5.163 2.014 -1.912 0 -3.824 -0.586 -5.15 -1.938 -1.593 -1.644 -1.785 -4.003 -1.785 -5.303 0 -3.773 1.746 -7.598 6.973 -7.598zm-2.626 11.46c0.446 0.586 1.186 1.135 2.639 1.135 1.262 0 2.129 -0.433 2.715 -1.313 0.484 -0.701 0.982 -1.81 0.982 -4.066 0 -0.688 -0.064 -1.67 -0.357 -2.537 -0.599 -1.746 -1.823 -2.511 -3.314 -2.511 -1.173 0 -2.091 0.472 -2.677 1.198 -0.829 0.982 -1.071 2.511 -1.071 4.117 0 1.364 0.217 2.881 1.084 3.977zm10.874 -11.154H110.267v11.766h6.234v2.409h-9.408V26.133zm10.835 -0.051h3.11v14.239h-3.11V26.082zm5.915 0.038h4.5l5.443 11.167v-11.167h2.894v14.201h-4.283l-5.622 -11.779v11.779h-2.932V26.12zm15.514 0h9.726v2.32h-6.616v3.378h6.195v2.32h-6.195v3.824h6.833v2.358h-9.956V26.12zm12.148 0.013h3.174v11.766h6.234v2.409h-9.408V26.133zm11.014 0h3.174v11.766h6.234v2.409h-9.408V26.133zm10.848 -0.051h3.11v14.239H173.367V26.082zM77.238 12.467H84.516v1.772h-4.857V16.954h4.525v1.836h-4.525v4.691h-2.422V12.467zm13.308 -0.242c1.198 0 2.855 0.28 3.964 1.491 1.198 1.338 1.44 3.059 1.44 4.143 0 1.606 -0.497 3.314 -1.415 4.321 -1.249 1.377 -3.072 1.568 -4.015 1.568 -1.479 0 -2.97 -0.459 -4.003 -1.504 -1.237 -1.275 -1.389 -3.11 -1.389 -4.117 0 -2.932 1.364 -5.902 5.418 -5.902zm-2.04 8.898c0.344 0.459 0.918 0.88 2.04 0.88 0.982 0 1.657 -0.331 2.103 -1.02 0.37 -0.548 0.765 -1.402 0.765 -3.161 0 -0.535 -0.051 -1.3 -0.28 -1.963 -0.472 -1.351 -1.415 -1.95 -2.575 -1.95 -0.905 0 -1.619 0.37 -2.078 0.931 -0.637 0.765 -0.829 1.95 -0.829 3.2 0.013 1.058 0.178 2.231 0.854 3.085zm8.885 -8.668h3.493l4.232 8.681V12.454h2.244v11.027h-3.327l-4.372 -9.153v9.153H97.392V12.454zm12.212 0.025 3.735 0.013c0.625 0 2.524 0.013 3.888 0.994 1.415 1.02 1.925 2.766 1.925 4.334 0 3.391 -1.861 5.15 -4.003 5.532 -0.421 0.076 -0.892 0.127 -2.027 0.127h-3.518V12.48zm2.46 9.178c0.268 0.013 0.676 0.025 0.956 0.025 1.033 0 1.925 -0.076 2.626 -0.765 0.956 -0.931 1.02 -2.575 1.02 -3.11 0 -1.555 -0.548 -2.983 -2.065 -3.404 -0.497 -0.14 -1.135 -0.217 -2.524 -0.153v7.406zm14.022 -9.204 3.914 11.027h-2.435l-0.816 -2.384h-4.462l-0.841 2.384h-2.307l4.079 -11.027h2.868zm0.064 6.858 -1.555 -4.691 -1.67 4.691h3.225zm4.423 2.154 5.902 -7.215 -5.545 0.051V12.493h8.171v2.091l-5.889 7.164 6.017 -0.089v1.81h-8.656v-2.001zm10.428 -9.051h2.422v11.052h-2.422V12.416zm9.115 -0.191c1.198 0 2.855 0.28 3.964 1.491 1.198 1.338 1.44 3.059 1.44 4.143 0 1.606 -0.497 3.314 -1.415 4.321 -1.249 1.377 -3.072 1.568 -4.015 1.568 -1.479 0 -2.97 -0.459 -4.003 -1.504 -1.237 -1.275 -1.389 -3.11 -1.389 -4.117 0 -2.932 1.351 -5.902 5.418 -5.902zm-2.052 8.898c0.344 0.459 0.918 0.88 2.04 0.88 0.982 0 1.657 -0.331 2.103 -1.02 0.37 -0.548 0.765 -1.402 0.765 -3.161 0 -0.535 -0.051 -1.3 -0.28 -1.963 -0.472 -1.351 -1.415 -1.95 -2.575 -1.95 -0.905 0 -1.619 0.37 -2.078 0.931 -0.637 0.765 -0.829 1.95 -0.829 3.2 0.013 1.058 0.191 2.231 0.854 3.085zm8.719 -8.668h3.493l4.232 8.681V12.454h2.244v11.027H163.424l-4.372 -9.153v9.153h-2.282V12.454zm11.817 0h7.559v1.797h-5.137v2.626h4.806v1.797h-4.806v2.97h5.303v1.836h-7.725V12.454z" style="fill:#020202"></path>
    <path style="fill:#d31e47" d="M9.841 9.522h57.861v57.619H9.841z"></path>
    <path d="M46.809 43.864c-1.861 -2.473 -4.423 -4.003 -7.623 -4.564l-0.829 -0.14 -4.755 -0.612c-0.395 3.518 1.058 5.775 2.855 7.215 0.51 0.408 1.058 0.752 1.593 1.045 0.79 0.421 1.568 0.727 2.218 0.943 0.115 0.038 0.229 0.076 0.357 0.115 2.384 0.841 4.092 2.957 4.092 5.571 0 3.34 -2.779 6.042 -6.208 6.042h0.089c-0.395 0 -0.803 -0.025 -1.224 -0.076 -2.499 -0.306 -4.755 -1.224 -6.756 -2.715 -0.051 -0.051 -0.102 -0.102 -0.166 -0.153 -1.797 -1.389 -3.404 -3.263 -4.768 -5.622 -2.18 -3.748 -3.34 -7.891 -3.467 -12.391v-0.255c-0.013 -0.357 -0.013 -0.714 0 -1.084 0.013 -1.109 0.102 -2.231 0.242 -3.365 0.548 -4.513 1.874 -8.464 3.926 -11.83l-0.013 -0.013c1.173 -1.925 2.588 -3.646 4.232 -5.188 0.586 -0.548 1.211 -1.058 1.848 -1.542 -0.14 0.038 -0.28 0.076 -0.433 0.115 -8.643 2.562 -15.437 9.918 -16.865 19.338 -0.025 0.204 -0.051 0.408 -0.076 0.599 -0.115 0.969 -0.178 1.912 -0.191 2.855v0.357c0.025 2.715 0.51 5.341 1.377 7.789 0.841 2.307 2.065 4.513 3.684 6.616 0.752 0.982 1.555 1.887 2.397 2.728 3.569 3.391 8.222 5.711 13.474 6.374 3.302 0.344 6.246 -0.433 8.758 -2.346 2.575 -1.95 4.079 -4.602 4.487 -7.878 0.357 -3.136 -0.395 -5.469 -2.256 -7.929z"
          style="fill:#010101"></path>
    <path d="M62.68 38.243v-0.14c-0.025 -2.715 -0.497 -5.341 -1.377 -7.789 -0.841 -2.307 -2.065 -4.513 -3.684 -6.616 -0.752 -0.982 -1.555 -1.887 -2.397 -2.728 -3.569 -3.391 -8.209 -5.711 -13.474 -6.374 -3.302 -0.344 -6.246 0.433 -8.758 2.346 -2.575 1.95 -4.079 4.602 -4.487 7.878 -0.395 3.161 0.37 5.494 2.231 7.967s4.423 4.003 7.623 4.564l0.841 0.14 4.755 0.612c0.395 -3.518 -1.058 -5.775 -2.855 -7.215 -0.51 -0.408 -1.058 -0.752 -1.593 -1.045 -0.79 -0.433 -1.568 -0.727 -2.218 -0.943 -0.115 -0.038 -0.229 -0.076 -0.357 -0.115 -2.384 -0.841 -4.092 -2.957 -4.092 -5.571 0 -3.34 2.779 -6.042 6.208 -6.042h-0.089c0.395 0 0.803 0.025 1.211 0.076 2.499 0.306 4.755 1.224 6.756 2.715 0.051 0.051 0.102 0.102 0.166 0.153 1.81 1.389 3.404 3.263 4.78 5.622 2.18 3.748 3.34 7.891 3.467 12.391v0.255c0.013 0.357 0.013 0.727 0 1.084 -0.013 1.109 -0.102 2.231 -0.242 3.365 -0.548 4.513 -1.874 8.464 -3.926 11.83l0.013 0.013c-1.173 1.925 -2.575 3.646 -4.232 5.188 -0.586 0.548 -1.211 1.071 -1.848 1.542 0.14 -0.038 0.293 -0.076 0.433 -0.115C54.177 58.728 60.972 51.373 62.399 41.952c0.025 -0.204 0.051 -0.408 0.076 -0.599 0.115 -0.956 0.178 -1.912 0.191 -2.855v-0.025c0.013 -0.089 0.013 -0.153 0.013 -0.229zm-1.721 -15.437v-6.552h-6.552z"
          style="fill:#fff"></path>
    <path d="M79.94 45.292V51.755c0 0.459 0.166 0.612 0.472 0.612 0.191 0 0.293 -0.051 0.37 -0.051 0.204 0 0.306 0.612 0.306 0.701 0 0.433 -0.65 0.472 -0.969 0.472 -0.88 0 -1.568 -0.446 -1.568 -1.708v-6.489c0 -0.204 0.178 -0.319 0.599 -0.319h0.217c0.395 0 0.574 0.115 0.574 0.319zm4.551 0.076c0 1.288 -0.956 2.473 -1.402 2.473 -0.166 0 -0.433 -0.051 -0.433 -0.217 0 -0.089 0.051 -0.191 0.089 -0.319 0.178 -0.408 0.408 -0.956 0.408 -1.925 0 -0.268 0.178 -0.446 0.586 -0.446h0.178c0.395 0.013 0.574 0.191 0.574 0.433zm3.773 -0.076v0.816c0 0.217 -0.178 0.319 -0.599 0.319h-0.242c-0.421 0 -0.599 -0.102 -0.599 -0.319v-0.816c0 -0.204 0.178 -0.319 0.599 -0.319h0.242c0.421 0 0.599 0.115 0.599 0.319zm-0.013 2.55v5.277c0 0.204 -0.178 0.319 -0.599 0.319H87.448c-0.421 0 -0.599 -0.115 -0.599 -0.319v-5.277c0 -0.204 0.178 -0.319 0.599 -0.319h0.217c0.408 0.013 0.586 0.115 0.586 0.319zm7.585 1.453v3.837c0 0.204 -0.166 0.319 -0.586 0.319h-0.229c-0.408 0 -0.586 -0.115 -0.586 -0.319v-3.646c0 -0.523 -0.268 -0.841 -0.854 -0.841 -0.472 0 -0.867 0.357 -1.071 0.701v3.786c0 0.204 -0.178 0.319 -0.599 0.319h-0.217c-0.421 0 -0.599 -0.115 -0.599 -0.319v-3.697c0 -1.045 -0.14 -1.351 -0.14 -1.517 0 -0.242 0.79 -0.319 1.02 -0.319 0.319 0 0.357 0.446 0.421 0.727 0.382 -0.459 1.007 -0.841 1.708 -0.841 1.147 -0.013 1.734 0.599 1.734 1.81zm4.398 -2.855v1.109h0.688c0.217 0 0.306 0.14 0.306 0.484v0.166c0 0.331 -0.089 0.484 -0.306 0.484h-0.688V51.755c0 0.459 0.178 0.612 0.484 0.612 0.178 0 0.293 -0.051 0.37 -0.051 0.204 0 0.306 0.612 0.306 0.701 0 0.433 -0.65 0.472 -0.969 0.472 -0.88 0 -1.568 -0.446 -1.568 -1.708v-3.098H98.539c-0.204 0 -0.293 -0.14 -0.293 -0.484v-0.166c0 -0.331 0.089 -0.484 0.293 -0.484h0.319l0.14 -1.109c0.038 -0.204 0.204 -0.319 0.51 -0.319h0.268c0.319 0.013 0.459 0.115 0.459 0.319zm8.337 3.939c0 0.166 -0.357 0.586 -0.51 0.586h-3.098c0.076 1.033 0.586 1.415 1.44 1.415 0.803 0 1.326 -0.395 1.453 -0.395 0.217 0 0.51 0.548 0.51 0.739 0 0.459 -1.198 0.778 -2.014 0.778 -1.963 0 -2.855 -1.084 -2.855 -2.97 0 -2.129 1.045 -3.047 2.677 -3.047 1.695 -0.013 2.397 1.211 2.397 2.894zm-3.608 -0.421h2.218c0 -0.841 -0.319 -1.364 -1.007 -1.364 -0.65 0 -1.096 0.395 -1.211 1.364zm7.547 -4.666V51.755c0 0.459 0.166 0.612 0.472 0.612 0.191 0 0.293 -0.051 0.37 -0.051 0.204 0 0.306 0.612 0.306 0.701 0 0.433 -0.65 0.472 -0.969 0.472 -0.88 0 -1.568 -0.446 -1.568 -1.708v-6.489c0 -0.204 0.178 -0.319 0.599 -0.319h0.217c0.395 0 0.574 0.115 0.574 0.319zm4.615 0V51.755c0 0.459 0.166 0.612 0.472 0.612 0.191 0 0.293 -0.051 0.37 -0.051 0.204 0 0.306 0.612 0.306 0.701 0 0.433 -0.65 0.472 -0.969 0.472 -0.88 0 -1.568 -0.446 -1.568 -1.708v-6.489c0 -0.204 0.178 -0.319 0.599 -0.319h0.217c0.395 0 0.574 0.115 0.574 0.319zm4.653 0v0.816c0 0.217 -0.178 0.319 -0.599 0.319h-0.242c-0.421 0 -0.599 -0.102 -0.599 -0.319v-0.816c0 -0.204 0.178 -0.319 0.599 -0.319h0.242c0.421 0 0.599 0.115 0.599 0.319zm-0.013 2.55v5.277c0 0.204 -0.178 0.319 -0.599 0.319h-0.217c-0.421 0 -0.599 -0.115 -0.599 -0.319v-5.277c0 -0.204 0.178 -0.319 0.599 -0.319h0.217c0.421 0.013 0.599 0.115 0.599 0.319zm5.851 -0.293h1.887c0.217 0 0.306 0.14 0.306 0.484v0.166c0 0.319 -0.089 0.459 -0.255 0.459 -0.178 0 -0.446 -0.025 -0.599 -0.051l-0.013 0.038c0.14 0.191 0.217 0.497 0.217 0.752 0 1.262 -0.918 1.938 -2.256 1.938 -0.535 0 -0.816 0.14 -0.816 0.472 0 0.497 0.841 0.497 1.708 0.625 0.867 0.14 1.721 0.433 1.721 1.53 0 1.122 -1.058 1.823 -2.766 1.823 -1.632 0 -2.55 -0.472 -2.55 -1.491 0 -0.612 0.395 -1.084 1.02 -1.338l0.013 -0.038c-0.306 -0.178 -0.472 -0.484 -0.472 -0.88 0 -0.421 0.229 -0.778 0.663 -1.02 -0.586 -0.306 -0.931 -0.867 -0.931 -1.632 0 -1.288 0.969 -1.925 2.333 -1.925 0.268 0.013 0.535 0.038 0.79 0.089zm-2.091 6.514c0 0.433 0.535 0.612 1.338 0.612 0.88 0 1.288 -0.229 1.288 -0.65 0 -0.523 -0.854 -0.523 -1.976 -0.688 -0.382 0.153 -0.65 0.408 -0.65 0.727zm0.268 -4.653c0 0.65 0.459 0.88 1.02 0.88s1.02 -0.229 1.02 -0.88c0 -0.663 -0.459 -0.905 -1.02 -0.905s-1.02 0.242 -1.02 0.905zm11.052 0.969c0 0.166 -0.357 0.586 -0.51 0.586h-3.098c0.076 1.033 0.586 1.415 1.44 1.415 0.803 0 1.326 -0.395 1.453 -0.395 0.217 0 0.51 0.548 0.51 0.739 0 0.459 -1.198 0.778 -2.014 0.778 -1.963 0 -2.855 -1.084 -2.855 -2.97 0 -2.129 1.045 -3.047 2.677 -3.047 1.683 -0.013 2.397 1.211 2.397 2.894zm-3.608 -0.421h2.218c0 -0.841 -0.319 -1.364 -1.007 -1.364 -0.65 0 -1.109 0.395 -1.211 1.364zm10.861 -0.663v3.837c0 0.204 -0.166 0.319 -0.586 0.319h-0.229c-0.408 0 -0.586 -0.115 -0.586 -0.319v-3.646c0 -0.523 -0.268 -0.841 -0.854 -0.841 -0.472 0 -0.867 0.357 -1.071 0.701v3.786c0 0.204 -0.178 0.319 -0.599 0.319h-0.217c-0.421 0 -0.599 -0.115 -0.599 -0.319v-3.697c0 -1.045 -0.14 -1.351 -0.14 -1.517 0 -0.242 0.79 -0.319 1.02 -0.319 0.319 0 0.357 0.446 0.421 0.727 0.382 -0.459 1.007 -0.841 1.708 -0.841 1.147 -0.013 1.734 0.599 1.734 1.81zm7.1 -0.982c0 0.064 -0.013 0.115 -0.025 0.14l-2.817 3.824h2.575c0.204 0 0.293 0.14 0.293 0.484v0.166c0 0.331 -0.089 0.484 -0.293 0.484h-4.181c-0.127 0 -0.293 -0.484 -0.293 -0.752 0 -0.051 0.013 -0.115 0.038 -0.14l2.817 -3.837h-2.358c-0.217 0 -0.306 -0.14 -0.306 -0.484v-0.166c0 -0.331 0.089 -0.484 0.306 -0.484h3.952c0.127 0 0.293 0.497 0.293 0.765zm6.998 0.982v2.256c0 1.071 0.14 1.377 0.14 1.542 0 0.242 -0.79 0.319 -1.02 0.319 -0.319 0 -0.357 -0.472 -0.421 -0.778 -0.204 0.255 -0.778 0.841 -1.734 0.841 -1.16 0 -1.746 -0.65 -1.746 -1.644 0 -1.275 0.969 -2.065 3.391 -2.078V49.333c0 -0.446 -0.268 -0.752 -0.994 -0.752 -0.892 0 -1.428 0.408 -1.542 0.408 -0.217 0 -0.51 -0.586 -0.51 -0.778 0 -0.344 0.931 -0.752 2.129 -0.752 1.606 0.013 2.307 0.739 2.307 1.836zm-3.378 2.409c0 0.408 0.229 0.65 0.701 0.65 0.561 0 0.994 -0.319 1.275 -0.727v-0.88c-1.096 0.025 -1.976 0.204 -1.976 0.956zm-71.501 5.583v6.259c0 1.071 0.14 1.377 0.14 1.542 0 0.242 -0.79 0.319 -1.02 0.319 -0.319 0 -0.357 -0.472 -0.421 -0.778 -0.37 0.51 -0.931 0.841 -1.606 0.841 -1.262 0 -2.129 -1.147 -2.129 -3.008s0.88 -3.008 2.333 -3.008c0.599 0 0.994 0.204 1.313 0.421v-2.613c0 -0.204 0.178 -0.319 0.599 -0.319h0.217c0.395 0.025 0.574 0.14 0.574 0.344zm-3.62 5.15c0 1.224 0.37 1.899 1.071 1.899 0.446 0 0.841 -0.306 1.147 -0.701V60.933c-0.268 -0.191 -0.599 -0.319 -1.007 -0.319 -0.829 0 -1.211 0.637 -1.211 1.823zm7.891 -5.15v0.816c0 0.217 -0.178 0.319 -0.599 0.319h-0.242c-0.421 0 -0.599 -0.102 -0.599 -0.319v-0.816c0 -0.204 0.178 -0.319 0.599 -0.319h0.242c0.421 0 0.599 0.115 0.599 0.319zm-0.013 2.55v5.277c0 0.204 -0.178 0.319 -0.599 0.319h-0.217c-0.421 0 -0.599 -0.115 -0.599 -0.319v-5.277c0 -0.204 0.178 -0.319 0.599 -0.319h0.217c0.421 0.013 0.599 0.127 0.599 0.319zm11.651 2.537c0 0.166 -0.357 0.586 -0.51 0.586h-3.098c0.076 1.033 0.586 1.415 1.44 1.415 0.803 0 1.326 -0.395 1.453 -0.395 0.217 0 0.51 0.548 0.51 0.739 0 0.459 -1.198 0.778 -2.014 0.778 -1.963 0 -2.855 -1.084 -2.855 -2.97 0 -2.129 1.045 -3.047 2.677 -3.047 1.695 -0.013 2.397 1.211 2.397 2.894zm-3.608 -0.408h2.218c0 -0.841 -0.319 -1.364 -1.007 -1.364 -0.65 -0.013 -1.096 0.382 -1.211 1.364zm9.433 -1.912c0 0.229 -0.255 0.79 -0.433 0.79 -0.102 0 -0.433 -0.255 -0.982 -0.255 -0.433 0 -0.739 0.166 -0.739 0.51 0 0.51 0.51 0.676 1.122 0.918 0.816 0.319 1.275 0.701 1.275 1.644 0 1.084 -0.829 1.848 -2.129 1.848 -0.892 0 -1.823 -0.331 -1.823 -0.739 0 -0.229 0.319 -0.752 0.51 -0.752 0.14 0 0.535 0.357 1.211 0.357 0.523 0 0.803 -0.217 0.803 -0.625 0 -0.446 -0.395 -0.612 -1.02 -0.841 -0.79 -0.255 -1.377 -0.663 -1.377 -1.683 0 -1.071 0.79 -1.759 1.976 -1.759 0.688 0 1.606 0.191 1.606 0.586zm5.915 0c0 0.229 -0.255 0.79 -0.433 0.79 -0.102 0 -0.433 -0.255 -0.982 -0.255 -0.433 0 -0.739 0.166 -0.739 0.51 0 0.51 0.51 0.676 1.122 0.918 0.816 0.319 1.275 0.701 1.275 1.644 0 1.084 -0.829 1.848 -2.129 1.848 -0.892 0 -1.823 -0.331 -1.823 -0.739 0 -0.229 0.319 -0.752 0.51 -0.752 0.14 0 0.535 0.357 1.211 0.357 0.523 0 0.803 -0.217 0.803 -0.625 0 -0.446 -0.395 -0.612 -1.02 -0.841 -0.79 -0.255 -1.377 -0.663 -1.377 -1.683 0 -1.071 0.79 -1.759 1.976 -1.759 0.688 0 1.606 0.191 1.606 0.586zm7.445 2.32c0 0.166 -0.357 0.586 -0.51 0.586h-3.098c0.076 1.033 0.586 1.415 1.44 1.415 0.803 0 1.326 -0.395 1.453 -0.395 0.217 0 0.51 0.548 0.51 0.739 0 0.459 -1.198 0.778 -2.014 0.778 -1.963 0 -2.855 -1.084 -2.855 -2.97 0 -2.129 1.045 -3.047 2.677 -3.047 1.683 -0.013 2.397 1.211 2.397 2.894zm-3.608 -0.408H117.023c0 -0.841 -0.319 -1.364 -1.007 -1.364 -0.65 -0.013 -1.109 0.382 -1.211 1.364zm9.357 -1.95c0 0.217 -0.115 0.816 -0.306 0.816 -0.153 0 -0.28 -0.102 -0.561 -0.102 -0.51 0 -0.867 0.472 -0.943 0.599v3.786c0 0.204 -0.178 0.319 -0.599 0.319h-0.217c-0.421 0 -0.599 -0.115 -0.599 -0.319v-3.697c0 -1.045 -0.14 -1.351 -0.14 -1.517 0 -0.242 0.79 -0.319 1.02 -0.319 0.319 0 0.357 0.446 0.421 0.727 0.293 -0.459 0.663 -0.841 1.249 -0.841 0.548 0 0.676 0.319 0.676 0.548zm6.501 0.127c0 0.204 -0.331 0.778 -0.51 0.778 -0.038 0 -0.102 -0.038 -0.178 -0.064 -0.204 -0.102 -0.548 -0.255 -1.071 -0.255 -0.931 0 -1.402 0.574 -1.402 1.874s0.395 1.899 1.402 1.899c0.561 0 0.956 -0.166 1.16 -0.268 0.089 -0.038 0.14 -0.064 0.178 -0.064 0.217 0 0.51 0.548 0.51 0.752 0 0.497 -1.3 0.701 -1.887 0.701 -1.887 0 -2.804 -0.931 -2.804 -2.996 0 -2.116 1.058 -3.021 2.804 -3.021 0.816 -0.013 1.797 0.242 1.797 0.663zm3.824 -2.855v0.816c0 0.217 -0.178 0.319 -0.599 0.319h-0.242c-0.421 0 -0.599 -0.102 -0.599 -0.319v-0.816c0 -0.204 0.178 -0.319 0.599 -0.319h0.242c0.421 0 0.599 0.115 0.599 0.319zm-0.013 2.55v5.277c0 0.204 -0.178 0.319 -0.599 0.319h-0.217c-0.421 0 -0.599 -0.115 -0.599 -0.319v-5.277c0 -0.204 0.178 -0.319 0.599 -0.319h0.217c0.421 0.013 0.599 0.127 0.599 0.319z"
          style="fill:#7e7f7f"></path></svg>